<svg xmlns="http://www.w3.org/2000/svg" viewBox="0 0 900 600"><path fill="#171717" d="M0 0h900v600H0z"/><path fill="#191919" d="M0 357l21.5 5.5C43 368 86 379 128.8 391.3c42.9 12.4 85.5 26 128.4 21.5 42.8-4.5 85.8-27.1 128.6-38.1 42.9-11 85.5-10.4 128.4.8 42.8 11.2 85.8 32.8 128.6 46.3 42.9 13.5 85.5 18.9 128.4 14.2 42.8-4.7 85.8-19.3 107.3-26.7L900 402v199H0z"/><path fill="#1c1c1c" d="M0 408l21.5-1.7c21.5-1.6 64.5-5 107.3-1.1 42.9 3.8 85.5 14.8 128.4 15.6 42.8.9 85.8-8.5 128.6-.5 42.9 8 85.5 33.4 128.4 38.2 42.8 4.8 85.8-10.8 128.6-16.7 42.9-5.8 85.5-1.8 128.4-8.3 42.8-6.5 85.8-23.5 107.3-32L900 393v208H0z"/><path fill="#1f1f1f" d="M0 483l21.5 4.5C43 492 86 501 128.8 504.7c42.9 3.6 85.5 2 128.4-3 42.8-5 85.8-13.4 128.6-17.9 42.9-4.5 85.5-5.1 128.4-.5C557 488 600 498 642.8 496c42.9-2 85.5-16 128.4-16 42.8 0 85.8 14 107.3 21l21.5 7v93H0z"/><path fill="#222" d="M0 481l21.5 8.8c21.5 8.9 64.5 26.5 107.3 30.9 42.9 4.3 85.5-4.7 128.4-6.7 42.8-2 85.8 3 128.6 6.7 42.9 3.6 85.5 6 128.4 6.6 42.8.7 85.8-.3 128.6-2.8 42.9-2.5 85.5-6.5 128.4-10.3 42.8-3.9 85.8-7.5 107.3-9.4L900 503v98H0z"/><path fill="#262626" d="M0 541h21.5c21.5 0 64.5 0 107.3-2.7 42.9-2.6 85.5-8 128.4-5.3 42.8 2.7 85.8 13.3 128.6 18.8 42.9 5.5 85.5 5.9 128.4 2.2 42.8-3.7 85.8-11.3 128.6-10.7 42.9.7 85.5 9.7 128.4 11.9 42.8 2.1 85.8-2.5 107.3-4.9L900 548v53H0z"/></svg>