<svg xmlns="http://www.w3.org/2000/svg" viewBox="0 0 900 600"><path fill="#fff" d="M0 0h900v600H0z"/><path fill="#ececec" d="M0 91l18.8 27.7c18.9 27.6 56.5 83 94 98.1 37.5 15.2 74.9-9.8 112.4-29.1 37.5-19.4 75.1-33 112.6-38.5s74.9-2.9 112.4 17.1 75.1 57.4 112.6 55.5c37.5-1.8 74.9-42.8 112.4-76.1 37.5-33.4 75.1-59 112.6-58.2 37.5.8 74.9 28.2 93.5 41.8L900 143v458H0z"/><path fill="#efefef" d="M0 220l18.8 16.7c18.9 16.6 56.5 50 94 45s74.9-48.4 112.4-44.9 75.1 53.9 112.6 68c37.5 14.2 74.9-7.8 112.4-18.5 37.5-10.6 75.1-10 112.6-16.3 37.5-6.3 74.9-19.7 112.4-24.7s75.1-1.6 112.6 11.2c37.5 12.8 74.9 35.2 93.5 46.3L900 314v287H0z"/><path fill="#f2f2f2" d="M0 279l18.8 4c18.9 4 56.5 12 94 32.5s74.9 53.5 112.4 70.7c37.5 17.1 75.1 18.5 112.6 25.1 37.5 6.7 74.9 18.7 112.4 25 37.5 6.4 75.1 7 112.6-13.8s74.9-63.2 112.4-70.8c37.5-7.7 75.1 19.3 112.6 20.1 37.5.9 74.9-24.5 93.5-37.1L900 322v279H0z"/><path fill="#f5f5f5" d="M0 464l18.8 7.8c18.9 7.9 56.5 23.5 94 34.9 37.5 11.3 74.9 18.3 112.4 10.6 37.5-7.6 75.1-30 112.6-32s74.9 16.4 112.4 24.9 75.1 7.1 112.6-4.7 74.9-34.2 112.4-28.2c37.5 6 75.1 40.4 112.6 49 37.5 8.7 74.9-8.3 93.5-16.8L900 501v100H0z"/></svg>